<svg width="47.285" height="31.172" viewBox="0 0 47.285 31.172" xmlns="http://www.w3.org/2000/svg"><g id="svgGroup" stroke-linecap="round" fill-rule="evenodd" font-size="9pt" stroke="#000" stroke-width="0.25mm" fill="black" style="stroke:#000;stroke-width:0.25mm;fill:black"><path d="M 38.467 31.172 L 36.065 31.172 Q 34.248 31.172 32.637 30.484 Q 31.026 29.795 29.824 28.594 Q 28.623 27.393 27.935 25.781 Q 27.246 24.17 27.246 22.354 L 27.246 8.819 Q 27.246 7.002 27.935 5.391 Q 28.623 3.779 29.824 2.578 Q 31.026 1.377 32.637 0.689 Q 34.248 0 36.065 0 L 38.467 0 Q 40.283 0 41.895 0.689 Q 43.506 1.377 44.707 2.578 Q 45.908 3.779 46.597 5.391 Q 47.285 7.002 47.285 8.819 L 47.285 15.879 L 30.85 15.879 L 30.85 22.559 Q 30.85 23.643 31.26 24.595 Q 31.67 25.547 32.373 26.25 Q 33.076 26.953 34.028 27.363 Q 34.981 27.774 36.065 27.774 L 38.467 27.774 Q 39.551 27.774 40.503 27.363 Q 41.455 26.953 42.158 26.25 Q 42.861 25.547 43.272 24.595 Q 43.682 23.643 43.682 22.559 L 43.682 20.567 L 47.285 21.152 L 47.285 22.354 Q 47.285 24.17 46.597 25.781 Q 45.908 27.393 44.707 28.594 Q 43.506 29.795 41.895 30.484 Q 40.283 31.172 38.467 31.172 Z M 11.221 31.172 L 8.819 31.172 Q 7.002 31.172 5.391 30.484 Q 3.779 29.795 2.578 28.594 Q 1.377 27.393 0.689 25.781 Q 0 24.17 0 22.354 L 0 8.819 Q 0 7.002 0.689 5.391 Q 1.377 3.779 2.578 2.578 Q 3.779 1.377 5.391 0.689 Q 7.002 0 8.819 0 L 11.221 0 Q 13.037 0 14.649 0.689 Q 16.26 1.377 17.461 2.578 Q 18.662 3.779 19.351 5.391 Q 20.039 7.002 20.039 8.819 L 20.039 22.354 Q 20.039 24.17 19.351 25.781 Q 18.662 27.393 17.461 28.594 Q 16.26 29.795 14.649 30.484 Q 13.037 31.172 11.221 31.172 Z M 16.436 22.559 L 16.436 8.613 Q 16.436 7.529 16.026 6.577 Q 15.615 5.625 14.912 4.922 Q 14.209 4.219 13.257 3.809 Q 12.305 3.399 11.221 3.399 L 8.819 3.399 Q 7.735 3.399 6.782 3.809 Q 5.83 4.219 5.127 4.922 Q 4.424 5.625 4.014 6.577 Q 3.604 7.529 3.604 8.613 L 3.604 22.559 Q 3.604 23.643 4.014 24.595 Q 4.424 25.547 5.127 26.25 Q 5.83 26.953 6.782 27.363 Q 7.735 27.774 8.819 27.774 L 11.221 27.774 Q 12.305 27.774 13.257 27.363 Q 14.209 26.953 14.912 26.25 Q 15.615 25.547 16.026 24.595 Q 16.436 23.643 16.436 22.559 Z M 43.682 13.067 L 43.682 8.613 Q 43.682 7.529 43.272 6.577 Q 42.861 5.625 42.158 4.922 Q 41.455 4.219 40.503 3.809 Q 39.551 3.399 38.467 3.399 L 36.065 3.399 Q 34.981 3.399 34.028 3.809 Q 33.076 4.219 32.373 4.922 Q 31.67 5.625 31.26 6.577 Q 30.85 7.529 30.85 8.613 L 30.85 13.067 L 43.682 13.067 Z" vector-effect="non-scaling-stroke"/></g></svg>