<svg width="232.52" height="45.02" viewBox="0 0 232.52 45.02" xmlns="http://www.w3.org/2000/svg"><g id="svgGroup" stroke-linecap="round" fill-rule="evenodd" font-size="9pt" stroke="#000" stroke-width="0.25mm" fill="black" style="stroke:#000;stroke-width:0.25mm;fill:black"><path d="M 232.52 10.01 L 219.873 45.02 L 216.968 45.02 L 221.411 32.861 L 213.306 10.01 L 216.309 10.01 L 222.827 28.955 L 222.925 30.249 L 223.023 28.955 L 229.517 10.01 L 232.52 10.01 Z M 98.486 35.01 L 95.484 35.01 L 95.484 16.699 A 4.243 4.243 0 0 0 95.142 15.002 Q 94.8 14.209 94.214 13.623 Q 93.628 13.037 92.835 12.695 A 4.243 4.243 0 0 0 91.138 12.354 L 89.136 12.354 A 4.243 4.243 0 0 0 87.439 12.695 Q 86.646 13.037 86.06 13.623 Q 85.474 14.209 85.132 15.002 A 4.243 4.243 0 0 0 84.79 16.699 L 84.79 35.01 L 81.787 35.01 L 81.787 10.01 L 82.788 10.01 L 84.424 12.549 A 7.505 7.505 0 0 1 87 10.339 A 7.135 7.135 0 0 1 90.381 9.521 L 91.138 9.521 A 7.193 7.193 0 0 1 93.994 10.095 Q 95.337 10.669 96.338 11.67 Q 97.339 12.671 97.913 14.014 A 7.193 7.193 0 0 1 98.486 16.87 L 98.486 35.01 Z M 57.666 45.02 L 56.421 45.02 A 8.148 8.148 0 0 1 53.733 44.58 A 7.763 7.763 0 0 1 53.565 44.519 A 7.321 7.321 0 0 1 51.542 43.388 A 6.878 6.878 0 0 1 51.221 43.115 A 6.489 6.489 0 0 1 49.646 40.942 A 6.537 6.537 0 0 1 49.086 38.626 A 7.701 7.701 0 0 1 49.072 38.159 L 49.072 38.062 A 6.961 6.961 0 0 1 49.293 36.285 A 6.114 6.114 0 0 1 49.609 35.376 A 6.696 6.696 0 0 1 51.074 33.252 A 5.274 5.274 0 0 1 49.207 31.335 Q 48.511 30.127 48.511 28.662 Q 48.511 27.344 49.072 26.208 Q 49.634 25.073 50.61 24.365 A 7.523 7.523 0 0 1 48.755 21.899 Q 48.071 20.459 48.071 18.75 L 48.071 16.87 A 7.193 7.193 0 0 1 48.645 14.014 Q 49.219 12.671 50.22 11.67 Q 51.221 10.669 52.564 10.095 A 7.193 7.193 0 0 1 55.42 9.521 L 56.665 9.521 A 7.135 7.135 0 0 1 60.047 10.339 A 7.505 7.505 0 0 1 62.622 12.549 L 64.258 10.01 L 65.259 10.01 L 65.259 18.75 A 7.193 7.193 0 0 1 64.685 21.606 Q 64.111 22.949 63.11 23.95 Q 62.109 24.951 60.767 25.525 A 7.193 7.193 0 0 1 57.91 26.099 L 53.565 26.099 A 2.365 2.365 0 0 0 52.588 26.306 A 2.831 2.831 0 0 0 51.77 26.855 A 2.375 2.375 0 0 0 51.221 27.673 A 2.581 2.581 0 0 0 51.026 28.662 A 2.491 2.491 0 0 0 51.221 29.639 A 2.539 2.539 0 0 0 51.77 30.457 A 2.539 2.539 0 0 0 52.588 31.006 A 2.491 2.491 0 0 0 53.565 31.201 L 57.666 31.201 A 8.148 8.148 0 0 1 60.354 31.641 A 7.763 7.763 0 0 1 60.523 31.702 A 7.321 7.321 0 0 1 62.545 32.833 A 6.878 6.878 0 0 1 62.866 33.105 A 6.489 6.489 0 0 1 64.441 35.278 A 6.537 6.537 0 0 1 65.001 37.594 A 7.701 7.701 0 0 1 65.015 38.062 L 65.015 38.159 A 6.965 6.965 0 0 1 64.75 40.104 A 6.253 6.253 0 0 1 64.441 40.942 Q 63.867 42.212 62.866 43.115 A 7.175 7.175 0 0 1 60.689 44.455 A 8.173 8.173 0 0 1 60.523 44.519 A 8.087 8.087 0 0 1 57.761 45.019 A 9.107 9.107 0 0 1 57.666 45.02 Z M 125.342 35.498 L 123.34 35.498 A 7.193 7.193 0 0 1 120.484 34.924 Q 119.141 34.351 118.14 33.35 Q 117.139 32.349 116.565 31.006 A 7.193 7.193 0 0 1 115.991 28.149 L 115.991 16.87 A 7.193 7.193 0 0 1 116.565 14.014 Q 117.139 12.671 118.14 11.67 Q 119.141 10.669 120.484 10.095 A 7.193 7.193 0 0 1 123.34 9.521 L 125.342 9.521 A 7.193 7.193 0 0 1 128.198 10.095 Q 129.541 10.669 130.542 11.67 Q 131.543 12.671 132.117 14.014 A 7.193 7.193 0 0 1 132.691 16.87 L 132.691 22.754 L 118.994 22.754 L 118.994 28.32 A 4.243 4.243 0 0 0 119.336 30.017 Q 119.678 30.811 120.264 31.396 Q 120.85 31.982 121.643 32.324 A 4.243 4.243 0 0 0 123.34 32.666 L 125.342 32.666 A 4.243 4.243 0 0 0 127.039 32.324 Q 127.832 31.982 128.418 31.396 Q 129.004 30.811 129.346 30.017 A 4.243 4.243 0 0 0 129.688 28.32 L 129.688 26.66 L 132.691 27.148 L 132.691 28.149 A 7.193 7.193 0 0 1 132.117 31.006 Q 131.543 32.349 130.542 33.35 Q 129.541 34.351 128.198 34.924 A 7.193 7.193 0 0 1 125.342 35.498 Z M 188.11 35.498 L 186.109 35.498 A 7.193 7.193 0 0 1 183.252 34.924 Q 181.909 34.351 180.908 33.35 Q 179.907 32.349 179.334 31.006 A 7.193 7.193 0 0 1 178.76 28.149 L 178.76 16.87 A 7.193 7.193 0 0 1 179.334 14.014 Q 179.907 12.671 180.908 11.67 Q 181.909 10.669 183.252 10.095 A 7.193 7.193 0 0 1 186.109 9.521 L 188.11 9.521 A 7.193 7.193 0 0 1 190.967 10.095 Q 192.31 10.669 193.311 11.67 Q 194.312 12.671 194.885 14.014 A 7.193 7.193 0 0 1 195.459 16.87 L 195.459 22.754 L 181.763 22.754 L 181.763 28.32 A 4.243 4.243 0 0 0 182.105 30.017 Q 182.446 30.811 183.032 31.396 Q 183.618 31.982 184.412 32.324 A 4.243 4.243 0 0 0 186.109 32.666 L 188.11 32.666 A 4.243 4.243 0 0 0 189.807 32.324 Q 190.601 31.982 191.187 31.396 Q 191.773 30.811 192.114 30.017 A 4.243 4.243 0 0 0 192.456 28.32 L 192.456 26.66 L 195.459 27.148 L 195.459 28.149 A 7.193 7.193 0 0 1 194.885 31.006 Q 194.312 32.349 193.311 33.35 Q 192.31 34.351 190.967 34.924 A 7.193 7.193 0 0 1 188.11 35.498 Z M 155.396 35.01 L 154.395 35.01 L 152.734 32.52 A 7.771 7.771 0 0 1 150.171 34.68 A 7.064 7.064 0 0 1 146.802 35.498 L 146.045 35.498 A 7.193 7.193 0 0 1 143.189 34.924 Q 141.846 34.351 140.845 33.35 Q 139.844 32.349 139.27 31.006 A 7.193 7.193 0 0 1 138.696 28.149 L 138.696 27.905 A 7.193 7.193 0 0 1 139.27 25.049 Q 139.844 23.706 140.845 22.705 Q 141.846 21.704 143.189 21.13 A 7.193 7.193 0 0 1 146.045 20.557 L 152.393 20.557 L 152.393 16.699 A 4.243 4.243 0 0 0 152.051 15.002 Q 151.709 14.209 151.123 13.623 Q 150.537 13.037 149.744 12.695 A 4.243 4.243 0 0 0 148.047 12.354 L 146.289 12.354 A 4.243 4.243 0 0 0 144.592 12.695 Q 143.799 13.037 143.213 13.623 Q 142.627 14.209 142.285 15.002 A 4.243 4.243 0 0 0 141.943 16.699 L 141.943 17.603 L 138.941 17.114 L 138.941 16.87 A 7.193 7.193 0 0 1 139.514 14.014 Q 140.088 12.671 141.089 11.67 Q 142.09 10.669 143.433 10.095 A 7.193 7.193 0 0 1 146.289 9.521 L 148.047 9.521 A 7.193 7.193 0 0 1 150.903 10.095 Q 152.246 10.669 153.247 11.67 Q 154.248 12.671 154.822 14.014 A 7.193 7.193 0 0 1 155.396 16.87 L 155.396 35.01 Z M 173.242 35.01 L 170.508 35.01 A 6.526 6.526 0 0 1 167.932 34.497 Q 166.724 33.984 165.833 33.081 Q 164.942 32.178 164.417 30.981 Q 163.892 29.785 163.892 28.418 L 163.892 12.866 L 159.4 12.866 L 159.4 10.01 L 163.892 10.01 L 163.892 4.004 L 166.895 3.516 L 166.895 10.01 L 173.242 10.01 L 173.242 12.866 L 166.895 12.866 L 166.895 28.564 A 3.582 3.582 0 0 0 167.053 29.638 A 3.299 3.299 0 0 0 167.175 29.968 A 3.637 3.637 0 0 0 167.944 31.104 A 3.599 3.599 0 0 0 169.092 31.873 A 3.564 3.564 0 0 0 170.461 32.153 A 4.059 4.059 0 0 0 170.508 32.153 L 173.242 32.153 L 173.242 35.01 Z M 9.351 35.498 L 7.349 35.498 A 7.193 7.193 0 0 1 4.492 34.924 Q 3.15 34.351 2.149 33.35 Q 1.148 32.349 0.574 31.006 A 7.193 7.193 0 0 1 0 28.149 L 0 16.87 A 7.193 7.193 0 0 1 0.574 14.014 Q 1.148 12.671 2.149 11.67 Q 3.15 10.669 4.492 10.095 A 7.193 7.193 0 0 1 7.349 9.521 L 9.351 9.521 A 7.193 7.193 0 0 1 12.207 10.095 Q 13.55 10.669 14.551 11.67 Q 15.552 12.671 16.126 14.014 A 7.193 7.193 0 0 1 16.699 16.87 L 16.699 28.149 A 7.193 7.193 0 0 1 16.126 31.006 Q 15.552 32.349 14.551 33.35 Q 13.55 34.351 12.207 34.924 A 7.193 7.193 0 0 1 9.351 35.498 Z M 33.057 12.866 L 30.054 12.866 A 4.243 4.243 0 0 0 28.357 13.208 Q 27.564 13.55 26.978 14.136 Q 26.392 14.722 26.05 15.515 A 4.243 4.243 0 0 0 25.708 17.212 L 25.708 35.01 L 22.705 35.01 L 22.705 10.01 L 23.706 10.01 L 25.342 12.549 A 7.505 7.505 0 0 1 27.918 10.339 A 7.135 7.135 0 0 1 31.299 9.521 L 33.057 9.521 L 33.057 12.866 Z M 211.817 12.866 L 208.814 12.866 A 4.243 4.243 0 0 0 207.117 13.208 Q 206.323 13.55 205.737 14.136 Q 205.151 14.722 204.81 15.515 A 4.243 4.243 0 0 0 204.468 17.212 L 204.468 35.01 L 201.465 35.01 L 201.465 10.01 L 202.466 10.01 L 204.102 12.549 A 7.505 7.505 0 0 1 206.677 10.339 A 7.135 7.135 0 0 1 210.059 9.521 L 211.817 9.521 L 211.817 12.866 Z M 41.065 35.01 L 38.062 35.01 L 38.062 10.01 L 41.065 10.01 L 41.065 35.01 Z M 74.78 35.01 L 71.777 35.01 L 71.777 10.01 L 74.78 10.01 L 74.78 35.01 Z M 13.696 28.32 L 13.696 16.699 A 4.243 4.243 0 0 0 13.355 15.002 Q 13.013 14.209 12.427 13.623 Q 11.841 13.037 11.047 12.695 A 4.243 4.243 0 0 0 9.351 12.354 L 7.349 12.354 A 4.243 4.243 0 0 0 5.652 12.695 Q 4.859 13.037 4.273 13.623 Q 3.687 14.209 3.345 15.002 A 4.243 4.243 0 0 0 3.003 16.699 L 3.003 28.32 A 4.243 4.243 0 0 0 3.345 30.017 Q 3.687 30.811 4.273 31.396 Q 4.859 31.982 5.652 32.324 A 4.243 4.243 0 0 0 7.349 32.666 L 9.351 32.666 A 4.243 4.243 0 0 0 11.047 32.324 Q 11.841 31.982 12.427 31.396 Q 13.013 30.811 13.355 30.017 A 4.243 4.243 0 0 0 13.696 28.32 Z M 62.28 18.921 L 62.28 16.699 A 4.243 4.243 0 0 0 61.939 15.002 Q 61.597 14.209 60.999 13.623 Q 60.401 13.037 59.607 12.695 A 4.243 4.243 0 0 0 57.91 12.354 L 55.42 12.354 A 4.243 4.243 0 0 0 53.723 12.695 Q 52.93 13.037 52.344 13.623 Q 51.758 14.209 51.416 15.002 A 4.243 4.243 0 0 0 51.074 16.699 L 51.074 18.921 A 4.243 4.243 0 0 0 51.416 20.618 Q 51.758 21.411 52.344 21.997 Q 52.93 22.583 53.723 22.925 A 4.243 4.243 0 0 0 55.42 23.267 L 57.91 23.267 A 4.243 4.243 0 0 0 59.607 22.925 Q 60.401 22.583 60.999 21.997 Q 61.597 21.411 61.939 20.618 A 4.243 4.243 0 0 0 62.28 18.921 Z M 152.393 28.32 L 152.393 22.9 L 146.045 22.9 A 4.243 4.243 0 0 0 144.348 23.242 Q 143.555 23.584 142.969 24.182 Q 142.383 24.78 142.041 25.574 A 4.243 4.243 0 0 0 141.699 27.271 L 141.699 28.32 A 4.243 4.243 0 0 0 142.041 30.017 Q 142.383 30.811 142.969 31.396 Q 143.555 31.982 144.348 32.324 A 4.243 4.243 0 0 0 146.045 32.666 L 148.047 32.666 A 4.243 4.243 0 0 0 149.744 32.324 Q 150.537 31.982 151.123 31.396 Q 151.709 30.811 152.051 30.017 A 4.243 4.243 0 0 0 152.393 28.32 Z M 129.688 20.41 L 129.688 16.699 A 4.243 4.243 0 0 0 129.346 15.002 Q 129.004 14.209 128.418 13.623 Q 127.832 13.037 127.039 12.695 A 4.243 4.243 0 0 0 125.342 12.354 L 123.34 12.354 A 4.243 4.243 0 0 0 121.643 12.695 Q 120.85 13.037 120.264 13.623 Q 119.678 14.209 119.336 15.002 A 4.243 4.243 0 0 0 118.994 16.699 L 118.994 20.41 L 129.688 20.41 Z M 192.456 20.41 L 192.456 16.699 A 4.243 4.243 0 0 0 192.114 15.002 Q 191.773 14.209 191.187 13.623 Q 190.601 13.037 189.807 12.695 A 4.243 4.243 0 0 0 188.11 12.354 L 186.109 12.354 A 4.243 4.243 0 0 0 184.412 12.695 Q 183.618 13.037 183.032 13.623 Q 182.446 14.209 182.105 15.002 A 4.243 4.243 0 0 0 181.763 16.699 L 181.763 20.41 L 192.456 20.41 Z M 62.158 38.306 L 62.158 37.915 A 4.1 4.1 0 0 0 62.053 36.969 A 3.401 3.401 0 0 0 61.817 36.292 A 3.507 3.507 0 0 0 60.889 35.083 A 4.14 4.14 0 0 0 59.823 34.444 A 4.888 4.888 0 0 0 59.509 34.326 A 5.176 5.176 0 0 0 58.044 34.062 A 5.939 5.939 0 0 0 57.813 34.058 L 56.275 34.058 A 5.394 5.394 0 0 0 54.943 34.218 A 4.894 4.894 0 0 0 54.578 34.326 A 4.487 4.487 0 0 0 53.626 34.773 A 3.937 3.937 0 0 0 53.198 35.083 A 3.507 3.507 0 0 0 52.271 36.292 A 3.542 3.542 0 0 0 51.956 37.421 A 4.4 4.4 0 0 0 51.929 37.915 L 51.929 38.306 A 4.079 4.079 0 0 0 52.025 39.207 A 3.302 3.302 0 0 0 52.271 39.917 A 3.666 3.666 0 0 0 53.198 41.125 A 4.056 4.056 0 0 0 54.335 41.805 A 4.743 4.743 0 0 0 54.578 41.895 A 5.176 5.176 0 0 0 56.043 42.159 A 5.939 5.939 0 0 0 56.275 42.163 L 57.813 42.163 A 5.394 5.394 0 0 0 59.144 42.002 A 4.894 4.894 0 0 0 59.509 41.895 A 4.305 4.305 0 0 0 60.523 41.402 A 3.857 3.857 0 0 0 60.889 41.125 A 3.666 3.666 0 0 0 61.817 39.917 Q 62.158 39.209 62.158 38.306 Z M 41.309 4.004 L 37.817 4.004 L 37.817 0 L 41.309 0 L 41.309 4.004 Z M 75.025 4.004 L 71.533 4.004 L 71.533 0 L 75.025 0 L 75.025 4.004 Z" vector-effect="non-scaling-stroke"/></g></svg>